{"title":"Tyrant S03E05 A Rock and Hard Place 1080p WEB-DL HEVC DD5.1 x265","uid":15494297,"size":954814915,"categoryP":"video","categoryS":"hd___tv_shows","magnet":"?xt=urn:btih:35a8f18aabe9d695d6bd09ebfd3bfd20ee2e6f8b&amp;dn=Tyrant+S03E05+A+Rock+and+Hard+Place+1080p+WEB-DL+HEVC+DD5.1+x265&amp;tr=udp%3A%2F%2Ftracker.leechers-paradise.org%3A6969&amp;tr=udp%3A%2F%2Fzer0day.ch%3A1337&amp;tr=udp%3A%2F%2Fopen.demonii.com%3A1337&amp;tr=udp%3A%2F%2Ftracker.coppersurfer.tk%3A6969&amp;tr=udp%3A%2F%2Fexodus.desync.com%3A6969","seeders":4,"leechers":2,"uploader":"nayhtut","files":1,"time":1470415351,"description":"[Screenshots]\r\n \nhttps://s32.postimg.org/ybwxfh4hh/Tyrant_S03_E05_A_Rock_and_a_Hard_Place_1080p_WEB.jpg \nhttps://s32.postimg.org/ugtjcwlbp/Tyrant_S03_E05_A_Rock_and_a_Hard_Place_1080p_WEB.jpg \nhttps://s32.postimg.org/p6t5zcqgl/Tyrant_S03_E05_A_Rock_and_a_Hard_Place_1080p_WEB.jpg\r\n\r\n   \r\nSource: Tyrant S03E05 A Rock and a Hard Place 1080p WEB-DL DD5 1 H 264-R2D2 (2.19 GB)\r\n\r\n\r\n__--__--__--__--__--__--__--__--__--__--__--__--__--\r\n\r\n\r\nComplete name                            : Tyrant.S03E05.A.Rock.and.a.Hard.Place.1080p.WEB-DL.HEVC.DD5.1.x265.mkv\r\nFormat                                   : Matroska\r\nFormat version                           : Version 4 / Version 2\r\nFile size                                : 911 MiB\r\nDuration                                 : 56mn 9s\r\nOverall bit rate                         : 2 267 Kbps\r\nWriting application                      : Lavf57.25.100\r\nWriting library                          : Lavf57.25.100\r\n\r\nVideo\r\n\r\nID                                       : 1\r\nFormat                                   : V_MPEGH/ISO/HEVC\r\nCodec ID                                 : V_MPEGH/ISO/HEVC\r\nDuration                                 : 56mn 9s\r\nBit rate                                 : 1 838 Kbps\r\nWidth                                    : 1 916 pixels\r\nHeight                                   : 1 076 pixels\r\nDisplay aspect ratio                     : 16:9\r\nFrame rate                               : 25.000 fps\r\nBits/(Pixel*Frame)                       : 0.036\r\nStream size                              : 738 MiB (81%)\r\nWriting library                          : Lavc57.48.101 libx265\r\nLanguage                                 : English\r\nDefault                                  : Yes\r\nForced                                   : No\r\nDURATION                                 : 00:56:09.131000000\r\nNUMBER_OF_FRAMES                         : 80777\r\nNUMBER_OF_BYTES                          : 2192372387\r\n_STATISTICS_WRITING_APP                  : mkvmerge v7.2.0 ('On Every Street') 64bit built on Sep 13 2014 15:52:10\r\n_STATISTICS_WRITING_DATE_UTC             : 2016-08-04 16:26:12\r\n_STATISTICS_TAGS                         : BPS DURATION NUMBER_OF_FRAMES NUMBER_OF_BYTES\r\n\r\nAudio\r\n\r\nID                                       : 2\r\nFormat                                   : AC-3\r\nFormat/Info                              : Audio Coding 3\r\nMode extension                           : CM (complete main)\r\nFormat settings, Endianness              : Big\r\nCodec ID                                 : A_AC3\r\nDuration                                 : 56mn 9s\r\nBit rate mode                            : Constant\r\nBit rate                                 : 384 Kbps\r\nChannel(s)                               : 6 channels\r\nChannel positions                        : Front: L C R, Side: L R, LFE\r\nSampling rate                            : 48.0 KHz\r\nBit depth                                : 16 bits\r\nCompression mode                         : Lossy\r\nStream size                              : 154 MiB (17%)\r\nWriting library                          : Lavc57.24.102 ac3\r\nLanguage                                 : English\r\nDefault                                  : Yes\r\nForced                                   : No\r\nDURATION                                 : 00:56:09.151000000\r\nNUMBER_OF_FRAMES                         : 105283\r\nNUMBER_OF_BYTES                          : 161714688\r\n_STATISTICS_WRITING_APP                  : mkvmerge v7.2.0 ('On Every Street') 64bit built on Sep 13 2014 15:52:10\r\n_STATISTICS_WRITING_DATE_UTC             : 2016-08-04 16:26:12\r\n_STATISTICS_TAGS                         : BPS DURATION NUMBER_OF_FRAMES NUMBER_OF_BYTES\r\n\r\nText\r\n\r\nID                                       : 3\r\nFormat                                   : ASS\r\nCodec ID                                 : S_TEXT/ASS\r\nCodec ID/Info                            : Advanced Sub Station Alpha\r\nCompression mode                         : Lossless\r\nWriting library                          : Lavc57.48.101 ssa\r\nLanguage                                 : English\r\nDefault                                  : No\r\nForced                                   : No\r\nDURATION                                 : 00:56:05.678000000\r\nNUMBER_OF_FRAMES                         : 881\r\nNUMBER_OF_BYTES                          : 35745\r\n_STATISTICS_WRITING_APP                  : mkvmerge v7.2.0 ('On Every Street') 64bit built on Sep 13 2014 15:52:10\r\n_STATISTICS_WRITING_DATE_UTC             : 2016-08-04 16:26:12\r\n_STATISTICS_TAGS                         : BPS DURATION NUMBER_OF_FRAMES NUMBER_OF_BYTES\r\n\r\nIMDb: http://www.imdb.com/title/tt2568204\r\n\r\nAfter adding torrent with magnet link,\r\n\r\nplease add this  following trackers list to the torrent for better seeds.\r\n\r\n\r\nudp://tracker.coppersurfer.tk:6969/announce\r\n\r\nudp://tracker.opentrackr.org:1337/announce\r\n \nhttp://tracker.baravik.org:6970/announce\r\n \nhttp://tracker2.wasabii.com.tw:6969/announce\r\n\r\nudp://9.rarbg.me:2710/announce\r\n\r\n\r\n__--__--__--__--__--__--__--__--__--__--__--__--__--\r\n\r\n\r\nEnjoy!","torrent":{"xt":"urn:btih:35a8f18aabe9d695d6bd09ebfd3bfd20ee2e6f8b","amp;dn":"Tyrant+S03E05+A+Rock+and+Hard+Place+1080p+WEB-DL+HEVC+DD5.1+x265","amp;tr":["udp%3A%2F%2Ftracker.leechers-paradise.org%3A6969","udp%3A%2F%2Fzer0day.ch%3A1337","udp%3A%2F%2Fopen.demonii.com%3A1337","udp%3A%2F%2Ftracker.coppersurfer.tk%3A6969","udp%3A%2F%2Fexodus.desync.com%3A6969"],"infoHash":"35a8f18aabe9d695d6bd09ebfd3bfd20ee2e6f8b","infoHashBuffer":{"type":"Buffer","data":[53,168,241,138,171,233,214,149,214,189,9,235,253,59,253,32,238,46,111,139]},"announce":[],"urlList":[]}}